<svg version="1.2" baseProfile="tiny-ps" xmlns="http://www.w3.org/2000/svg" viewBox="0 0 200 40" width="200" height="40">
	<title>Nytt projekt</title>
	<style>
		tspan { white-space:pre }
		.s0 { fill: #90326e } 
	</style>
	<path id="Form 1" class="s0" d="m4 17c0-8.84 7.16-16 16-16v0c8.84 0 16 7.16 16 16v0c0 8.84-7.16 16-16 16v0c-8.84 0-16-7.16-16-16v0z" />
	<path id="SF" fill="#ffd700" aria-label="SF"  d="m19.49 9.6v1.83q-1.07-0.51-2.01-0.76q-0.95-0.25-1.83-0.25q-1.53 0-2.37 0.59q-0.83 0.59-0.83 1.69q0 0.92 0.55 1.39q0.56 0.46 2.1 0.75l1.13 0.23q2.1 0.4 3.09 1.41q1 1 1 2.69q0 2.01-1.35 3.05q-1.35 1.04-3.95 1.04q-0.98 0-2.1-0.22q-1.1-0.22-2.29-0.66v-1.93q1.14 0.64 2.24 0.96q1.09 0.32 2.15 0.32q1.6 0 2.48-0.63q0.87-0.63 0.87-1.8q0-1.02-0.63-1.6q-0.62-0.58-2.05-0.86l-1.14-0.22q-2.1-0.42-3.03-1.31q-0.94-0.89-0.94-2.48q0-1.84 1.29-2.89q1.3-1.06 3.57-1.06q0.97 0 1.99 0.18q1.01 0.18 2.07 0.53zm3.76 13.4v-13.85h7.96v1.58h-6.09v4.08h5.49v1.58h-5.49v6.61h-1.87z" />
	<path id="Skellefteå kommun" fill="#ffffff" aria-label="Skellefteå kommun"  d="m43.95 19.23c3.1 0 4.19-1.64 4.19-3.26c0-2-1.57-3.04-3.51-4.09c-1.75-0.97-2.9-1.66-2.9-3.1c0-1.4 1.21-1.84 2.3-1.84c1.37 0 2.34 0.59 2.45 1.64c0.05 0.23 0.07 0.49 0 0.76c0.2 0.04 0.4 0.05 0.56 0c0.56-0.05 0.72-0.4 0.72-0.83c0-1.42-1.46-2.23-3.58-2.23c-2.05 0-3.82 0.86-3.82 2.95c0 1.93 1.39 2.81 3.46 3.96c1.87 1.04 2.88 1.73 2.88 3.17c0 1.48-1.08 2.2-2.61 2.2c-1.76 0-2.83-0.9-2.9-2.27c-0.02-0.29-0.02-0.52 0.05-0.76c-1.01-0.14-1.33 0.34-1.33 1.03c0 1.46 1.22 2.66 4.03 2.66zm14.17-1.49c-0.16 0.2-0.38 0.23-0.5 0.23c-0.32 0-0.47-0.2-0.72-0.61l-1.06-1.91c-0.2-0.32-0.4-0.59-0.67-0.7c1.28-0.59 2.5-1.58 2.5-3.08c0-1.22-0.77-2.05-2.23-2.05c-1.75 0-3.02 1.08-3.56 2.68l0.02-3.29c0.04-1.06 0.02-1.75 0.23-2.83c-0.13-0.13-0.4-0.32-0.83-0.32c-0.49 0-0.83 0.29-0.83 0.79l0.02 11.68c0 0.5 0.16 0.86 0.79 0.86c0.45 0 0.68-0.18 0.86-0.32c-0.23-0.61-0.25-0.95-0.25-3.1c0.65-0.16 1.48-0.4 2.27-0.68l1.55 3.06c0.29 0.67 0.81 1.04 1.4 1.04c0.61 0 1.21-0.38 1.21-0.94c0-0.18-0.05-0.36-0.2-0.52zm-6.23-2.61c0-2.7 1.22-4.66 3.06-4.66c0.72 0 1.26 0.36 1.26 1.3c0 1.82-2.21 2.75-4.32 3.37zm14.85 1.55c-0.36 1.03-1.4 1.57-2.7 1.57c-1.58 0-2.86-0.85-3.01-3.42c0.63 0.09 1.26 0.13 1.94 0.13c2.54 0 4.09-0.94 4.09-2.74c0-1.69-1.37-2.59-3.29-2.59c-2.79 0-4.28 1.87-4.28 4.86c0 3.1 1.62 4.75 4.21 4.75c1.51 0 2.74-0.58 3.2-1.66c0.23-0.59 0.07-0.81-0.16-0.9zm-3.02-6.41c0.88 0 1.82 0.38 1.82 1.76c0 1.78-1.4 2.27-3.11 2.27c-0.47-0.02-0.95-0.05-1.4-0.09c0.02-2.59 1.1-3.94 2.7-3.94zm7.33 8.91c0.68 0 1.28-0.36 1.28-0.94c0-0.14-0.05-0.36-0.2-0.56c-0.13 0.25-0.41 0.38-0.67 0.38c-0.45 0-0.68-0.34-0.68-0.95v-7.42c0-1.85 0.02-2.84 0.23-3.51c-0.14-0.13-0.41-0.32-0.83-0.32c-0.49 0-0.85 0.29-0.85 0.79v10.53c0 1.26 0.63 2 1.71 2zm4.86 0c0.68 0 1.28-0.36 1.28-0.94c0-0.14-0.05-0.36-0.2-0.56c-0.13 0.25-0.41 0.38-0.67 0.38c-0.45 0-0.68-0.34-0.68-0.95v-7.42c0-1.85 0.02-2.84 0.23-3.51c-0.14-0.13-0.41-0.32-0.83-0.32c-0.49 0-0.85 0.29-0.85 0.79v10.53c0 1.26 0.63 2 1.71 2zm9.76-2.5c-0.36 1.03-1.4 1.57-2.7 1.57c-1.58 0-2.86-0.85-3.01-3.42c0.63 0.09 1.26 0.13 1.94 0.13c2.54 0 4.09-0.94 4.09-2.74c0-1.69-1.37-2.59-3.29-2.59c-2.79 0-4.28 1.87-4.28 4.86c0 3.1 1.62 4.75 4.21 4.75c1.51 0 2.74-0.58 3.2-1.66c0.23-0.59 0.07-0.81-0.16-0.9zm-3.02-6.41c0.88 0 1.82 0.38 1.82 1.76c0 1.78-1.4 2.27-3.11 2.27c-0.47-0.02-0.95-0.05-1.4-0.09c0.02-2.59 1.1-3.94 2.7-3.94zm8.96-4.61c-2.45 0-3.01 1.69-3.01 3.33v0.88h-0.92c-0.22 0-0.4 0.13-0.41 0.4l-0.02 0.41c0.23-0.04 0.85-0.05 1.08-0.05h0.27l0.02 7.78c0 0.49 0.34 0.79 0.83 0.79c0.38 0 0.63-0.16 0.81-0.32c-0.18-0.52-0.22-1.3-0.22-1.93v-6.32h2.16c0.22 0 0.4-0.16 0.41-0.41l0.02-0.4c-0.18 0.02-1.3 0.05-1.48 0.05h-1.12v-0.65c0-1.49 0.13-2.95 1.53-2.95c0.68 0 1.15 0.25 1.15 0.95c0 0.27-0.07 0.59-0.34 0.95c0.11 0.13 0.32 0.18 0.58 0.18c0.49 0 1.04-0.41 1.04-1.17c0-0.99-0.97-1.53-2.39-1.53zm6.08 4.21h-0.72c0.02-0.97 0.07-1.6 0.22-2.07c-0.14-0.13-0.41-0.32-0.83-0.32c-0.49 0-0.85 0.29-0.85 0.79v1.6h-0.92c-0.22 0-0.38 0.13-0.4 0.4l-0.02 0.41c0.23-0.04 0.85-0.05 1.08-0.05h0.25v6.57c0 1.26 0.68 2 1.82 2c0.88 0 1.53-0.36 1.53-0.92c0-0.16-0.05-0.38-0.2-0.58c-0.13 0.25-0.52 0.38-0.85 0.38c-0.58 0-0.86-0.36-0.86-0.97v-5.8v-0.68h1.85c0.22 0 0.38-0.16 0.4-0.41l0.02-0.4c-0.18 0.02-1.35 0.05-1.53 0.05zm9.77 6.8c-0.36 1.03-1.4 1.57-2.7 1.57c-1.58 0-2.86-0.85-3.01-3.42c0.63 0.09 1.26 0.13 1.94 0.13c2.54 0 4.09-0.94 4.09-2.74c0-1.69-1.37-2.59-3.29-2.59c-2.79 0-4.28 1.87-4.28 4.86c0 3.1 1.62 4.75 4.21 4.75c1.51 0 2.74-0.58 3.2-1.66c0.23-0.59 0.07-0.81-0.16-0.9zm-3.02-6.41c0.88 0 1.82 0.38 1.82 1.76c0 1.78-1.4 2.27-3.11 2.27c-0.47-0.02-0.95-0.05-1.4-0.09c0.02-2.59 1.1-3.94 2.7-3.94zm8.91-1.28c0.99 0 1.66-0.58 1.67-1.51c0-0.88-0.65-1.46-1.6-1.46c-0.99 0-1.67 0.59-1.67 1.53c0 0.88 0.65 1.44 1.6 1.44zm0.04-2.45c0.52 0 0.85 0.36 0.85 0.97c0 0.61-0.32 0.97-0.85 0.97c-0.52 0-0.85-0.36-0.85-0.97c0-0.61 0.32-0.97 0.85-0.97zm4.75 11.14c-0.13 0.25-0.41 0.38-0.59 0.38c-0.41 0-0.65-0.31-0.65-0.95v-3.6c0-2.65-1.13-3.89-3.62-3.89c-2.09 0-3.44 0.74-3.44 2.16c0 0.81 0.52 1.58 1.35 1.58c0.29 0 0.65-0.09 0.86-0.36c-0.56-0.2-0.77-0.79-0.77-1.28c0-1.13 0.97-1.46 1.87-1.46c1.66 0 2.29 1.06 2.29 3.15v0.47c-0.92-0.05-2.03 0.04-3.02 0.31c-1.73 0.47-2.99 1.44-2.99 2.92c0 1.26 0.85 2.09 2.25 2.09c1.64 0 3.06-1.1 3.83-2.77v0.52c0 1.55 0.54 2.23 1.57 2.23c0.7 0 1.26-0.4 1.26-0.94c0-0.14-0.05-0.36-0.2-0.56zm-5.81 0.5c-0.97 0.04-1.33-0.65-1.33-1.39c0-0.92 0.65-1.6 1.69-1.98c0.74-0.29 1.94-0.41 2.79-0.36c-0.04 1.93-1.73 3.69-3.15 3.73zm19.26-0.45c-0.16 0.2-0.38 0.23-0.5 0.23c-0.32 0-0.47-0.2-0.72-0.61l-1.06-1.91c-0.2-0.32-0.4-0.59-0.67-0.7c1.28-0.59 2.5-1.58 2.5-3.08c0-1.22-0.77-2.05-2.23-2.05c-1.75 0-3.02 1.08-3.56 2.68l0.02-3.29c0.04-1.06 0.02-1.75 0.23-2.83c-0.13-0.13-0.4-0.32-0.83-0.32c-0.49 0-0.83 0.29-0.83 0.79l0.02 11.68c0 0.5 0.16 0.86 0.79 0.86c0.45 0 0.68-0.18 0.86-0.32c-0.23-0.61-0.25-0.95-0.25-3.1c0.65-0.16 1.48-0.4 2.27-0.68l1.55 3.06c0.29 0.67 0.81 1.04 1.4 1.04c0.61 0 1.21-0.38 1.21-0.94c0-0.18-0.05-0.36-0.2-0.52zm-6.23-2.61c0-2.7 1.22-4.66 3.06-4.66c0.72 0 1.26 0.36 1.26 1.3c0 1.82-2.21 2.75-4.32 3.37zm11.72 4.1c2.61 0 4.14-1.78 4.14-4.81c0-3.02-1.53-4.81-4.14-4.81c-2.59 0-4.12 1.78-4.12 4.81c0 3.02 1.53 4.81 4.12 4.81zm0-0.65c-1.67 0-2.59-1.48-2.59-4.16c0-2.68 0.92-4.14 2.59-4.14c1.67 0 2.59 1.46 2.59 4.14c0 2.68-0.92 4.16-2.59 4.16zm19.24-1.64v-3.58c0-2.45-0.85-3.74-2.74-3.74c-1.42 0-2.5 0.9-2.93 2.34c-0.27-1.51-1.1-2.34-2.61-2.34c-1.39 0-2.43 0.86-2.9 2.3v-0.29c0-1.33-0.59-2-1.55-2c-0.61 0-1.12 0.38-1.12 0.94c0 0.18 0.05 0.38 0.2 0.56c0.11-0.23 0.34-0.38 0.56-0.38c0.41 0 0.63 0.34 0.63 0.95l0.02 6.62c0 0.54 0.34 0.86 0.83 0.86c0.43 0 0.68-0.2 0.83-0.32c-0.25-0.67-0.25-1.3-0.25-4.1c0-3.2 1.26-4.36 2.34-4.36c1.35 0 1.76 1.1 1.76 3.13l0.02 4.86c0 0.49 0.32 0.79 0.79 0.79c0.38 0 0.63-0.16 0.81-0.32c-0.18-0.52-0.22-1.3-0.22-1.93l-0.02-2.52c0.05-2.92 1.37-4.01 2.41-4.01c1.35 0 1.71 1.22 1.71 3.13v4.86c0 0.49 0.34 0.79 0.83 0.79c0.38 0 0.63-0.16 0.83-0.32c-0.18-0.52-0.23-1.3-0.23-1.93zm15.7 0v-3.58c0-2.45-0.85-3.74-2.74-3.74c-1.42 0-2.5 0.9-2.93 2.34c-0.27-1.51-1.1-2.34-2.61-2.34c-1.39 0-2.43 0.86-2.9 2.3v-0.29c0-1.33-0.59-2-1.55-2c-0.61 0-1.12 0.38-1.12 0.94c0 0.18 0.05 0.38 0.2 0.56c0.11-0.23 0.34-0.38 0.56-0.38c0.41 0 0.63 0.34 0.63 0.95l0.02 6.62c0 0.54 0.34 0.86 0.83 0.86c0.43 0 0.68-0.2 0.83-0.32c-0.25-0.67-0.25-1.3-0.25-4.1c0-3.2 1.26-4.36 2.34-4.36c1.35 0 1.76 1.1 1.76 3.13l0.02 4.86c0 0.49 0.32 0.79 0.79 0.79c0.38 0 0.63-0.16 0.81-0.32c-0.18-0.52-0.22-1.3-0.22-1.93l-0.02-2.52c0.05-2.92 1.37-4.01 2.41-4.01c1.35 0 1.71 1.22 1.71 3.13v4.86c0 0.49 0.34 0.79 0.83 0.79c0.38 0 0.63-0.16 0.83-0.32c-0.18-0.52-0.23-1.3-0.23-1.93zm10.85 0.85c-0.13 0.23-0.34 0.27-0.47 0.27c-0.36 0-0.5-0.25-0.5-0.92l-0.02-6.66c0-0.54-0.36-0.86-0.83-0.86c-0.41 0-0.68 0.2-0.83 0.32c0.25 0.68 0.25 1.33 0.25 4.21c0 3.13-1.35 4.28-2.48 4.28c-1.35 0-1.8-0.86-1.8-3.17l-0.02-4.84c0-0.5-0.34-0.81-0.81-0.81c-0.4 0-0.65 0.16-0.85 0.32c0.18 0.54 0.23 1.3 0.23 1.94v3.56c0.02 2.79 0.9 3.78 2.83 3.78c1.42 0 2.52-0.83 3.02-2.25v0.36c0 1.22 0.49 1.84 1.4 1.84c0.68 0 1.08-0.34 1.08-0.83c0-0.2-0.07-0.36-0.22-0.56zm9.56-0.85v-3.58c0-2.45-0.92-3.74-2.9-3.74c-1.46 0-2.59 0.81-3.1 2.23v-0.36c0-1.24-0.5-1.85-1.4-1.85c-0.68 0-1.08 0.34-1.08 0.83c0 0.2 0.07 0.38 0.22 0.58c0.11-0.25 0.34-0.29 0.47-0.29c0.34 0 0.49 0.25 0.5 0.94v6.64c0 0.54 0.34 0.86 0.85 0.86c0.4 0 0.68-0.2 0.83-0.32c-0.25-0.68-0.25-1.31-0.25-4.21c0-3.08 1.39-4.19 2.56-4.19c1.39 0 1.85 1.06 1.87 3.08v4.86c0 0.49 0.36 0.79 0.85 0.79c0.38 0 0.63-0.14 0.83-0.32c-0.18-0.52-0.22-1.3-0.23-1.93z" />
	<path id="Färdtjänst" fill="#ffffff" aria-label="Färdtjänst"  d="m83.61 22.61h-4.53c-0.51 0-0.75 0.06-1.03 0.32c0.15 0.43 0.19 0.95 0.19 1.54l0.02 8.04c0 0.4 0.28 0.66 0.69 0.66c0.34 0 0.59-0.16 0.7-0.27c-0.16-0.44-0.19-1.02-0.19-1.61v-3.31h3.66c0.05-0.21 0.06-0.48 0-0.73h-3.67v-3.96c1.42 0.02 2.75 0.16 4.05 0.39c0.34-0.15 0.5-1.07 0.12-1.07zm3.09 1.61c0.38 0 0.7-0.33 0.7-0.7c0-0.39-0.33-0.71-0.7-0.71c-0.39 0-0.72 0.32-0.72 0.71c0 0.38 0.33 0.7 0.72 0.7zm2.59 0c0.39 0 0.72-0.33 0.72-0.7c0-0.39-0.33-0.71-0.72-0.71c-0.38 0-0.69 0.32-0.69 0.71c0 0.38 0.31 0.7 0.69 0.7zm2.66 7.7c-0.11 0.21-0.34 0.31-0.5 0.31c-0.34 0-0.54-0.25-0.54-0.79v-3c0-2.21-0.94-3.24-3.02-3.24c-1.74 0-2.86 0.61-2.86 1.8c0 0.68 0.44 1.32 1.13 1.32c0.24 0 0.54-0.07 0.72-0.3c-0.47-0.16-0.64-0.66-0.64-1.06c0-0.95 0.81-1.21 1.56-1.21c1.38 0 1.91 0.88 1.91 2.63v0.39c-0.77-0.05-1.7 0.03-2.52 0.25c-1.44 0.39-2.49 1.2-2.49 2.43c0 1.05 0.7 1.74 1.88 1.74c1.36 0 2.55-0.91 3.2-2.31v0.43c0 1.29 0.45 1.86 1.3 1.86c0.58 0 1.05-0.33 1.05-0.78c0-0.12-0.05-0.3-0.16-0.46zm-4.84 0.42c-0.81 0.03-1.11-0.54-1.11-1.16c0-0.77 0.54-1.34 1.41-1.65c0.61-0.24 1.62-0.34 2.33-0.3c-0.03 1.61-1.44 3.08-2.63 3.11zm9.52-7.14c-0.96 0-1.65 0.58-2 1.72v-0.07c0.03-1.09-0.39-1.64-1.15-1.64c-0.57 0-0.9 0.29-0.9 0.69c0 0.16 0.06 0.31 0.18 0.48c0.09-0.21 0.29-0.24 0.39-0.24c0.28 0 0.42 0.21 0.42 0.78v5.52c0 0.45 0.31 0.7 0.69 0.7c0.35 0 0.59-0.16 0.7-0.27c-0.21-0.57-0.19-1.1-0.19-3.48c0-2.6 0.78-3.54 1.59-3.54c0.55 0 0.87 0.3 0.87 0.93c0 0.33-0.05 0.6-0.29 0.96c0.09 0.11 0.29 0.16 0.53 0.15c0.46-0.03 0.89-0.48 0.89-1.14c0-1-0.72-1.56-1.73-1.56zm9.8 6.78c-0.11 0.19-0.28 0.22-0.41 0.22c-0.28 0-0.47-0.22-0.47-0.76l0.02-8.71c0-0.42-0.3-0.66-0.7-0.66c-0.34 0-0.59 0.16-0.69 0.27c0.16 0.57 0.19 1.3 0.19 2.05l0.02 2.01c-0.31-0.77-1.03-1.2-2.07-1.2c-2.04 0-3.15 1.63-3.15 4.36c0 1.65 0.47 3.64 2.58 3.64c1.37 0 2.22-0.84 2.69-2.1v0.11c0 1.21 0.38 1.92 1.23 1.92c0.54 0 0.93-0.27 0.93-0.67c0-0.15-0.04-0.31-0.16-0.48zm-4.38 0.5c-1.38 0-1.61-1.5-1.61-2.96c0-2.38 0.73-3.61 2.07-3.61c1.53 0 1.85 1.34 1.85 2.55c0 2.18-0.83 4.02-2.31 4.02zm8.19-7.07h-0.6c0.01-0.81 0.06-1.33 0.18-1.72c-0.12-0.11-0.34-0.27-0.69-0.27c-0.41 0-0.7 0.24-0.7 0.66v1.33h-0.77c-0.18 0-0.32 0.11-0.33 0.33l-0.02 0.34c0.19-0.03 0.7-0.05 0.9-0.05h0.21v5.48c0 1.05 0.57 1.66 1.51 1.66c0.74 0 1.28-0.3 1.28-0.77c0-0.13-0.04-0.31-0.16-0.48c-0.11 0.21-0.44 0.31-0.71 0.31c-0.48 0-0.72-0.3-0.72-0.81v-4.83v-0.57h1.55c0.18 0 0.31-0.13 0.33-0.34l0.02-0.33c-0.15 0.02-1.13 0.04-1.28 0.04zm3.82-1.59c0.44 0 0.8-0.36 0.8-0.8c0-0.43-0.36-0.79-0.8-0.79c-0.43 0-0.79 0.36-0.79 0.79c0 0.44 0.36 0.8 0.79 0.8zm-1.56 12.67c1.77 0 2.22-1.38 2.22-2.68l-0.02-7.94c0-0.42-0.28-0.67-0.67-0.67c-0.29 0-0.51 0.12-0.67 0.27c0.15 0.45 0.18 1.1 0.18 1.62l-0.02 6.51c0 1.35-0.12 2.37-1 2.37c-0.31 0-0.71-0.12-0.71-0.67c0-0.16 0.03-0.34 0.12-0.51c-0.09-0.15-0.19-0.21-0.38-0.21c-0.48 0-0.67 0.38-0.67 0.72c0 0.7 0.53 1.2 1.62 1.2zm6.17-12.27c0.38 0 0.7-0.33 0.7-0.7c0-0.39-0.33-0.71-0.7-0.71c-0.39 0-0.72 0.32-0.72 0.71c0 0.38 0.33 0.7 0.72 0.7zm2.59 0c0.39 0 0.72-0.33 0.72-0.7c0-0.39-0.33-0.71-0.72-0.71c-0.38 0-0.69 0.32-0.69 0.71c0 0.38 0.32 0.7 0.69 0.7zm2.66 7.7c-0.11 0.21-0.35 0.31-0.5 0.31c-0.34 0-0.54-0.25-0.54-0.79v-3c0-2.21-0.95-3.24-3.02-3.24c-1.74 0-2.86 0.61-2.86 1.8c0 0.68 0.43 1.32 1.13 1.32c0.24 0 0.54-0.07 0.72-0.3c-0.47-0.16-0.64-0.66-0.64-1.06c0-0.95 0.81-1.21 1.56-1.21c1.38 0 1.91 0.88 1.91 2.63v0.39c-0.77-0.05-1.7 0.03-2.52 0.25c-1.44 0.39-2.49 1.2-2.49 2.43c0 1.05 0.71 1.74 1.88 1.74c1.37 0 2.55-0.91 3.2-2.31v0.43c0 1.29 0.45 1.86 1.3 1.86c0.59 0 1.05-0.33 1.05-0.78c0-0.12-0.05-0.3-0.16-0.46zm-4.85 0.42c-0.81 0.03-1.11-0.54-1.11-1.16c0-0.77 0.54-1.34 1.41-1.65c0.62-0.24 1.62-0.34 2.33-0.3c-0.03 1.61-1.44 3.08-2.63 3.11zm12.54-1.04v-2.98c0-2.04-0.77-3.12-2.42-3.12c-1.21 0-2.16 0.67-2.58 1.86v-0.3c0-1.04-0.42-1.55-1.17-1.55c-0.57 0-0.9 0.29-0.9 0.69c0 0.16 0.06 0.31 0.18 0.48c0.09-0.21 0.28-0.24 0.39-0.24c0.28 0 0.41 0.21 0.42 0.78v5.54c0 0.45 0.28 0.72 0.7 0.72c0.33 0 0.57-0.16 0.69-0.27c-0.21-0.57-0.21-1.1-0.21-3.51c0-2.57 1.16-3.5 2.13-3.5c1.15 0 1.54 0.88 1.56 2.56v4.05c0 0.4 0.3 0.66 0.7 0.66c0.31 0 0.53-0.12 0.69-0.27c-0.15-0.44-0.18-1.08-0.19-1.61zm4.51 1.91c2.4 0 3.12-1.14 3.12-2.14c0-1.38-1.37-1.88-2.56-2.45c-1-0.48-1.94-0.87-1.94-1.85c0-0.76 0.74-1.03 1.55-1.03c0.96 0 1.57 0.34 1.65 1c0.06 0.18 0.06 0.42 0.02 0.63c0.15 0.03 0.28 0.05 0.44 0c0.42-0.04 0.55-0.34 0.55-0.69c0-0.95-0.97-1.5-2.61-1.5c-1.44 0-2.7 0.55-2.7 1.93c0 1.5 1.2 2.01 2.37 2.57c1.05 0.51 2.1 0.81 2.1 1.77c0 0.79-0.78 1.18-1.88 1.18c-1.17 0-1.89-0.55-1.94-1.44c-0.03-0.24-0.03-0.42 0.03-0.63c-0.75-0.12-0.99 0.32-0.99 0.82c0 1 0.83 1.82 2.79 1.82zm6.9-7.8h-0.6c0.01-0.81 0.06-1.33 0.18-1.72c-0.12-0.11-0.35-0.27-0.69-0.27c-0.41 0-0.71 0.24-0.71 0.66v1.33h-0.77c-0.18 0-0.31 0.11-0.33 0.33l-0.01 0.34c0.19-0.03 0.7-0.05 0.9-0.05h0.21v5.48c0 1.05 0.57 1.66 1.52 1.66c0.73 0 1.27-0.3 1.27-0.77c0-0.13-0.04-0.31-0.16-0.48c-0.1 0.21-0.44 0.31-0.71 0.31c-0.48 0-0.72-0.3-0.72-0.81v-4.83v-0.57h1.54c0.18 0 0.31-0.13 0.33-0.34l0.01-0.33c-0.15 0.02-1.13 0.04-1.28 0.04z" />
</svg>